<svg xmlns="http://www.w3.org/2000/svg" xmlns:xlink="http://www.w3.org/1999/xlink" version="1.1" x="0px" y="0px" viewBox="0 0 34 42.5" enable-background="new 0 0 34 34" xml:space="preserve"><g><path d="M1.499,20.117c0,1.072,0.419,2.078,1.174,2.825l0.518,0.519c0.006,0.007,0.013,0.013,0.02,0.019l0.16,0.16l0.004-0.005   c0.106,0.114,0.211,0.22,0.307,0.315l8.123,8.122c0.245,0.245,0.56,0.362,0.884,0.398C13.404,32.815,14.191,33,15.004,33h11.998   c3.032,0,5.499-2.467,5.499-5.499V16.003c0-2.206-1.794-4-4-4c-0.945,0-1.814,0.329-2.5,0.88c-0.685-0.551-1.555-0.88-2.5-0.88   c-0.945,0-1.814,0.329-2.5,0.88c-0.685-0.551-1.555-0.88-2.499-0.88c-0.345,0-0.68,0.044-1,0.127V5c0-2.206-1.794-4-4-4   s-4,1.794-4,4v13.463l-1.171-1.171c-0.754-0.754-1.759-1.17-2.831-1.17s-2.077,0.416-2.825,1.164   C1.918,18.039,1.499,19.045,1.499,20.117z M4.795,19.413c0.374-0.375,1.043-0.375,1.418,0l3.732,3.732   c0.586,0.586,1.536,0.586,2.121,0c0.236-0.236,0.351-0.535,0.397-0.841c0.007-0.029,0.012-0.059,0.017-0.089   c0.005-0.059,0.019-0.114,0.017-0.173c0.001-0.027,0.008-0.053,0.008-0.08V5c0-0.561,0.439-1,1-1c0.561,0,0.999,0.439,0.999,1   v11.003c0,0.828,0.671,1.5,1.5,1.5c0.829,0,1.5-0.672,1.5-1.5c0-0.561,0.439-1,1-1c0.56,0,0.999,0.439,0.999,1   c0,0.828,0.671,1.5,1.5,1.5s1.5-0.672,1.5-1.5c0-0.561,0.439-1,1-1c0.561,0,1,0.439,1,1c0,0.828,0.671,1.5,1.5,1.5   c0.829,0,1.5-0.672,1.5-1.5c0-0.561,0.439-1,1-1c0.561,0,1,0.439,1,1v11.498c0,1.378-1.121,2.499-2.499,2.499H15.004   c-0.476,0-0.91-0.128-1.292-0.381c-0.062-0.041-0.127-0.077-0.194-0.108c-0.119-0.088-0.4-0.327-0.604-0.643   c-0.154-0.239-0.367-0.415-0.605-0.531L5.312,21.34c-0.001-0.002-0.003-0.003-0.004-0.005l-0.043-0.043l-0.001,0.001   c-0.019-0.018-0.039-0.034-0.059-0.051c-0.135-0.146-0.277-0.287-0.416-0.427c-0.187-0.185-0.29-0.433-0.29-0.698   C4.499,19.852,4.602,19.604,4.795,19.413z"/></g><text x="0" y="49" fill="#000000" font-size="5px" font-weight="bold" font-family="'Helvetica Neue', Helvetica, Arial-Unicode, Arial, Sans-serif">Created by ProSymbols</text><text x="0" y="54" fill="#000000" font-size="5px" font-weight="bold" font-family="'Helvetica Neue', Helvetica, Arial-Unicode, Arial, Sans-serif">from the Noun Project</text></svg>